<?xml version="1.0" ?>
<!DOCTYPE svg  PUBLIC '-//W3C//DTD SVG 1.1//EN'  'http://www.w3.org/Graphics/SVG/1.1/DTD/svg11.dtd'>
<!-- Uploaded to: SVG Repo, www.svgrepo.com, Generator: SVG Repo Mixer Tools -->
<svg width="800px" height="800px" viewBox="0 0 32 32" id="_x3C_Layer_x3E_" version="1.1" xml:space="preserve" xmlns="http://www.w3.org/2000/svg" xmlns:xlink="http://www.w3.org/1999/xlink">
<style type="text/css">
<![CDATA[
	.st0{fill:#E3F2FD;}
	.st1{fill:#80D8FF;}
	.st2{fill:#1AD2A4;}
	.st3{fill:#ECEFF1;}
	.st4{fill:#55FB9B;}
	.st5{fill:#BBDEFB;}
	.st6{fill:#C1AEE1;}
	.st7{fill:#FF5252;}
	.st8{fill:#FF8A80;}
	.st9{fill:#FFB74D;}
	.st10{fill:#FFF176;}
	.st11{fill:#FFFFFF;}
	.st12{fill:#65C7EA;}
	.st13{fill:#CFD8DC;}
	.st14{fill:#37474F;}
	.st15{fill:#78909C;}
	.st16{fill:#42A5F5;}
	.st17{fill:#455A64;}
]]>
</style>
<g id="Bitcoin_x2C__BTC_1_">
<path class="st9" d="M7.48,8.75c0.03-0.04-1.94,0-1.94,0V5.89c0,0,4.81,0.01,5.39,0l0.01-4.39h2.67L13.6,5.81   c0.72-0.02,1.44-0.03,2.14-0.03V1.5l2.68,0.01L18.41,5.9c3.45,0.3,6.19,1.37,6.49,4.53c0.22,2.32-0.75,3.71-2.3,4.5   c2.55,0.61,4.15,2.13,3.83,5.53c-0.39,4.22-3.54,5.35-8.03,5.61l-0.01,4.43h-2.67v-4.38c-0.69,0-1.4,0-2.13-0.02v4.4l-2.68-0.01   l0.01-4.44c-0.63,0-5.39-0.02-5.39-0.02l0.53-3.19c0,0,1.98,0.03,1.94,0c0.76,0,0.96-0.54,1.01-0.89L9.02,9.92   C8.92,9.38,8.56,8.75,7.48,8.75z M21.15,19.93c0-3.46-5.68-2.95-7.49-2.95l-0.01,5.89C15.47,22.87,21.15,23.25,21.15,19.93z    M13.66,14.29c1.51,0,6.25,0.35,6.25-2.66c0-3.16-4.74-2.68-6.25-2.68V14.29z" id="XMLID_95_"/>
<g id="XMLID_157_">
<path class="st17" d="M13.59,31C13.59,31,13.59,31,13.59,31l-2.68-0.01c-0.28,0-0.5-0.23-0.5-0.5l0.01-3.94    c-1.4,0-4.89-0.02-4.89-0.02c-0.15,0-0.29-0.07-0.38-0.18c-0.09-0.11-0.13-0.26-0.11-0.4l0.53-3.19c0.04-0.24,0.25-0.42,0.49-0.42    c0,0,0,0,0.01,0c0.77,0.01,1.63,0.02,1.84,0.01c0.03-0.01,0.06-0.01,0.1-0.01c0.27,0,0.46-0.08,0.51-0.46L8.52,9.92    C8.43,9.49,8.1,9.25,7.48,9.25c-0.04,0-0.08,0-0.11-0.01c-0.21-0.01-1.06,0-1.82,0.01C5.41,9.24,5.29,9.2,5.19,9.11    S5.04,8.88,5.04,8.75V5.89c0-0.13,0.05-0.26,0.15-0.35c0.09-0.09,0.25-0.15,0.35-0.15c0,0,3.51,0.01,4.89,0l0.01-3.89    c0-0.28,0.22-0.5,0.5-0.5h2.67c0.13,0,0.26,0.05,0.35,0.15c0.09,0.09,0.15,0.22,0.15,0.35L14.1,5.3c0.38-0.01,0.76-0.01,1.14-0.02    V1.5c0-0.13,0.05-0.26,0.15-0.35C15.48,1.05,15.61,1,15.74,1c0,0,0,0,0,0l2.68,0.01c0.28,0,0.5,0.23,0.5,0.5l-0.01,3.93    c1.93,0.19,6.1,0.89,6.49,4.94l0,0c0.18,1.91-0.36,3.38-1.62,4.39c2.4,0.92,3.43,2.81,3.15,5.74c-0.44,4.74-4.23,5.76-8.03,6.03    l-0.01,3.96c0,0.28-0.22,0.5-0.5,0.5h-2.67c-0.28,0-0.5-0.22-0.5-0.5v-3.88c-0.37,0-0.75,0-1.13-0.01v3.89    c0,0.13-0.05,0.26-0.15,0.35C13.85,30.95,13.72,31,13.59,31z M16.22,30h1.67l0.01-3.93c0-0.26,0.21-0.48,0.47-0.5    c5.13-0.3,7.25-1.74,7.56-5.16c0.27-2.82-0.8-4.36-3.45-5c-0.2-0.05-0.36-0.22-0.38-0.43c-0.02-0.21,0.08-0.41,0.27-0.5    c1.55-0.79,2.21-2.1,2.03-4.01l0,0C24.17,8,22.31,6.74,18.37,6.4c-0.26-0.02-0.46-0.24-0.46-0.5l0.01-3.89L16.24,2v3.78    c0,0.28-0.22,0.5-0.5,0.5c-0.7,0-1.41,0.01-2.13,0.03c-0.14,0-0.27-0.05-0.36-0.14S13.1,5.94,13.1,5.81L13.11,2h-1.67l-0.01,3.89    c0,0.27-0.22,0.49-0.49,0.5c-0.46,0.01-3.65,0-4.9,0v1.85c0.79-0.02,1.22-0.02,1.47,0.01c1.09,0.01,1.82,0.58,2,1.58l0,12.12    c-0.12,0.9-0.69,1.39-1.51,1.39v-0.01c-0.27,0.03-0.73,0.02-1.52,0.01l-0.36,2.19c1.29,0.01,4.31,0.02,4.8,0.02    c0.13,0,0.26,0.05,0.35,0.15c0.09,0.09,0.15,0.22,0.15,0.35l-0.01,3.94L13.09,30v-3.9c0-0.13,0.05-0.26,0.15-0.36    c0.1-0.09,0.22-0.14,0.36-0.14c0.73,0.02,1.43,0.02,2.12,0.02c0.28,0,0.5,0.22,0.5,0.5V30z" id="XMLID_670_"/>
<path class="st17" d="M15.02,23.38c-0.31,0-0.6,0-0.85-0.01l-0.51-0.01c-0.13,0-0.26-0.05-0.35-0.15    c-0.09-0.09-0.15-0.22-0.15-0.35l0.01-3.95c0-0.28,0.22-0.5,0.5-0.5c0,0,0,0,0,0c0.28,0,0.5,0.22,0.5,0.5l-0.01,3.46h0.03    c1.53,0.02,4.71,0.07,5.95-1.16c0.35-0.34,0.52-0.77,0.52-1.29c0-0.56-0.18-1.01-0.54-1.37c-1.22-1.2-4.2-1.13-5.79-1.09    c-0.25,0.01-0.47,0.01-0.65,0.01c-0.28,0-0.5-0.22-0.5-0.5s0.22-0.5,0.5-0.5c0.18,0,0.39,0,0.63-0.01    c1.87-0.04,4.99-0.11,6.52,1.38c0.56,0.55,0.85,1.25,0.85,2.09c0,0.79-0.27,1.47-0.82,2C19.51,23.23,16.87,23.38,15.02,23.38z" id="XMLID_669_"/>
<path class="st17" d="M14.81,14.8c-0.26,0-0.51,0-0.72-0.01l-0.43,0c-0.28,0-0.5-0.22-0.5-0.5V10.9    c0-0.28,0.22-0.5,0.5-0.5s0.5,0.22,0.5,0.5v2.9c1.25,0.02,3.75,0.05,4.78-0.97c0.32-0.31,0.47-0.71,0.47-1.2    c0-0.54-0.16-0.96-0.5-1.29c-1.02-1-3.41-0.93-4.69-0.9c-0.22,0.01-0.4,0.01-0.56,0.01c-0.28,0-0.5-0.22-0.5-0.5s0.22-0.5,0.5-0.5    c0.15,0,0.33,0,0.53-0.01c1.53-0.04,4.09-0.11,5.41,1.18c0.53,0.52,0.8,1.19,0.8,2.01c0,0.77-0.26,1.41-0.77,1.91    C18.49,14.67,16.34,14.8,14.81,14.8z" id="XMLID_668_"/>
</g>
</g>
</svg>