<?xml version="1.0" ?><svg width="64px" height="64px" viewBox="0 0 64 64" id="svg5" version="1.1" xml:space="preserve" xmlns="http://www.w3.org/2000/svg" xmlns:svg="http://www.w3.org/2000/svg"><defs id="defs2"/><g id="layer1" transform="translate(-384,-672)"><path d="m 394,681 h 49 v 6 h -49 z" id="path61240" style="fill:#3e4f59;fill-opacity:1;fill-rule:evenodd;stroke-width:2;stroke-linecap:round;stroke-linejoin:round;stroke-miterlimit:4.1"/><path d="m 394,687 h 49 v 40 h -49 z" id="path61242" style="fill:#acbec2;fill-opacity:1;fill-rule:evenodd;stroke-width:2.00001;stroke-linecap:round;stroke-linejoin:round;stroke-miterlimit:4.1"/><path d="m 394,687 v 40 h 29.76953 a 28.484051,41.392605 35.599482 0 0 18.625,-40 z" id="path61244" style="fill:#e8edee;fill-opacity:1;fill-rule:evenodd;stroke:none;stroke-width:2.00002;stroke-linecap:round;stroke-linejoin:round;stroke-miterlimit:4.1"/><path d="m 396,680 c -1.64501,0 -3,1.355 -3,3 v 40 c 0,0.55229 0.44772,1 1,1 0.55229,0 1,-0.44771 1,-1 v -40 c 0,-0.56413 0.43587,-1 1,-1 h 45 c 0.56413,0 1,0.43587 1,1 v 3 h -42 c -0.55228,0 -1,0.44772 -1,1 0,0.55229 0.44772,1 1,1 h 42 v 37 c 0,0.56413 -0.43587,1 -1,1 h -49 c -0.55228,0 -1,0.44772 -1,1 0,0.55229 0.44772,1 1,1 h 49 c 1.64501,0 3,-1.35499 3,-3 0,-14 0,-28 0,-42 0,-1.645 -1.35499,-3 -3,-3 z" id="path61246" style="color:#000000;fill:#000000;fill-rule:evenodd;stroke-linecap:round;stroke-linejoin:round;stroke-miterlimit:4.1"/><path d="m 439,683 c -0.55228,0 -1,0.44772 -1,1 0,0.55229 0.44772,1 1,1 0.55229,0 1,-0.44771 1,-1 0,-0.55228 -0.44771,-1 -1,-1 z" id="path61248" style="color:#000000;fill:#ed7161;fill-opacity:1;fill-rule:evenodd;stroke-linecap:round;stroke-linejoin:round;stroke-miterlimit:4.1;-inkscape-stroke:none"/><path d="m 435,683 c -0.55228,0 -1,0.44772 -1,1 0,0.55229 0.44772,1 1,1 0.55229,0 1,-0.44771 1,-1 0,-0.55228 -0.44771,-1 -1,-1 z" id="path61250" style="color:#000000;fill:#ecba16;fill-opacity:1;fill-rule:evenodd;stroke-linecap:round;stroke-linejoin:round;stroke-miterlimit:4.1;-inkscape-stroke:none"/><path d="m 431,683 c -0.55228,0 -1,0.44772 -1,1 0,0.55229 0.44772,1 1,1 0.55229,0 1,-0.44771 1,-1 0,-0.55228 -0.44771,-1 -1,-1 z" id="path61252" style="color:#000000;fill:#42b05c;fill-opacity:1;fill-rule:evenodd;stroke-linecap:round;stroke-linejoin:round;stroke-miterlimit:4.1;-inkscape-stroke:none"/><path d="m 389,726 a 1,1 0 0 0 -1,1 1,1 0 0 0 1,1 1,1 0 0 0 1,-1 1,1 0 0 0 -1,-1 z" id="path61254" style="color:#000000;fill:#000000;fill-rule:evenodd;stroke-linecap:round;stroke-linejoin:round;stroke-miterlimit:4.1;-inkscape-stroke:none"/><path d="m 397,686 c -0.55228,0 -1,0.44772 -1,1 0,0.55229 0.44772,1 1,1 0.55229,0 1,-0.44771 1,-1 0,-0.55228 -0.44771,-1 -1,-1 z" id="path61256" style="color:#000000;fill:#000000;fill-rule:evenodd;stroke-linecap:round;stroke-linejoin:round;stroke-miterlimit:4.1;-inkscape-stroke:none"/><path d="m 405.02708,692 h 13.1436 l 6.83353,6.63159 L 425.0002,720 h -20.02998 c -1.08885,0 -1.97153,-0.88268 -1.97154,-1.97153 l -8e-5,-23.99998 c -1e-5,-1.1203 0.90818,-2.02849 2.02848,-2.02849 z" id="rect19954" style="fill:#0075d3;fill-opacity:1;fill-rule:evenodd;stroke:none;stroke-width:1.99999;stroke-linecap:round;stroke-linejoin:round;stroke-miterlimit:4.1;stroke-opacity:1"/><path d="m 406.00195,694.63672 a 16.779619,20.333775 0 0 0 -3.0039,0.36914 v 23.02344 c 1e-5,1.08885 0.8838,1.9707 1.97265,1.9707 h 17.25586 a 16.779619,20.333775 0 0 0 0.55469,-5.0293 16.779619,20.333775 0 0 0 -16.7793,-20.33398 z" id="path59704" style="fill:#0588e2;fill-opacity:1;fill-rule:evenodd;stroke:none;stroke-width:2;stroke-linecap:round;stroke-linejoin:round;stroke-miterlimit:4.1"/><path d="m 418,692 7,7 h -8 v -7 z" id="path102879" style="fill:#fe93d3;fill-opacity:1;fill-rule:evenodd;stroke:none;stroke-width:2;stroke-linecap:round;stroke-linejoin:round;stroke-miterlimit:4.1"/><path d="m 405.02734,691 c -1.66072,0 -3.02929,1.36856 -3.02929,3.0293 V 714 a 0.99999499,0.99999499 0 0 0 1,1 0.99999499,0.99999499 0 0 0 1,-1 v -19.9707 c 0,-0.57986 0.44945,-1.0293 1.02929,-1.0293 H 410 a 0.99999499,0.99999499 0 0 0 1,-1 0.99999499,0.99999499 0 0 0 -1,-1 z m 8.97461,0 a 0.99999499,0.99999499 0 0 0 -1,1 0.99999499,0.99999499 0 0 0 1,1 h 2 v 5.9707 a 1.000095,1.000095 0 0 0 1,1 h 7.00196 L 424,719 h -19.0293 c -0.54841,0 -0.97265,-0.42228 -0.97265,-0.9707 a 0.99999499,0.99999499 0 0 0 -1,-1 0.99999499,0.99999499 0 0 0 -1,1 c 1e-5,1.62927 1.34337,2.9707 2.97265,2.9707 H 425 a 1.000095,1.000095 0 0 0 1,-1 l 0.004,-21.36914 a 1.000095,1.000095 0 0 0 -0.30274,-0.7168 l -6.83398,-6.63086 A 1.000095,1.000095 0 0 0 418.16992,691 Z m 4,2.22852 4.88477,4.74218 h -4.88477 z" id="rect19969" style="color:#000000;fill:#000000;fill-rule:evenodd;stroke-linecap:round;stroke-linejoin:round;stroke-miterlimit:4.1;-inkscape-stroke:none"/><path d="m 407.00195,702.9707 a 0.99999499,0.99999499 0 0 0 -1,1 0.99999499,0.99999499 0 0 0 1,1 h 8 a 0.99999499,0.99999499 0 0 0 1,-1 0.99999499,0.99999499 0 0 0 -1,-1 z" id="path19976" style="color:#000000;fill:#000000;fill-rule:evenodd;stroke-linecap:round;stroke-linejoin:round;stroke-miterlimit:4.1"/><path d="m 407.00195,707.9707 c -0.55229,0 -1,0.44771 -1,1 0,0.55229 0.44771,1 1,1 H 414 c 0.55229,0 1,-0.44771 1,-1 0,-0.55229 -0.44771,-1 -1,-1 z" id="path28394" style="color:#000000;fill:#000000;fill-rule:evenodd;stroke-linecap:round;stroke-linejoin:round;stroke-miterlimit:4.1"/><path d="m 407.00195,712.9707 a 0.99999499,0.99999499 0 0 0 -1,1 0.99999499,0.99999499 0 0 0 1,1 h 6 a 0.99999499,0.99999499 0 0 0 1,-1 0.99999499,0.99999499 0 0 0 -1,-1 z" id="path28396" style="color:#000000;fill:#000000;fill-rule:evenodd;stroke-linecap:round;stroke-linejoin:round;stroke-miterlimit:4.1;-inkscape-stroke:none"/><path d="m 407.00139,694.99197 h 6.00001 v 3.97956 h -6.00001 z" id="rect19974" style="fill:#fe93d3;fill-opacity:1;fill-rule:evenodd;stroke:none;stroke-width:1.99999;stroke-linecap:round;stroke-linejoin:round;stroke-miterlimit:4.1"/><path d="m 407.00195,693.99219 a 1.000095,1.000095 0 0 0 -1,1 v 3.97851 a 1.000095,1.000095 0 0 0 1,1 h 6 a 1.000095,1.000095 0 0 0 1,-1 v -3.97851 a 1.000095,1.000095 0 0 0 -1,-1 z m 1,2 h 4 v 1.97851 h -4 z" id="path22928" style="color:#000000;fill:#000000;fill-rule:evenodd;stroke-linecap:round;stroke-linejoin:round;stroke-miterlimit:4.1;-inkscape-stroke:none"/><path d="m 433.0014,713.54877 c 0,4.68321 -3.7965,8.47972 -8.47974,8.47972 -4.68323,0 -8.47972,-3.79651 -8.47972,-8.47972 0,-4.68322 3.79649,-8.47973 8.47972,-8.47973 4.68324,0 8.47974,3.79651 8.47974,8.47973 z" id="path19956" style="fill:#ffa221;fill-opacity:1;fill-rule:evenodd;stroke:none;stroke-width:1.99999;stroke-linecap:round;stroke-linejoin:round;stroke-miterlimit:4.1;stroke-opacity:1"/><path d="m 418.13281,707.97656 c -1.30106,1.49042 -2.09179,3.43845 -2.09179,5.57227 0,4.6832 3.79724,8.48047 8.48046,8.48047 4.68324,0 8.48047,-3.79727 8.48047,-8.48047 0,-0.0105 4e-5,-0.0208 0,-0.0312 a 19.45256,14.829408 0 0 0 -14.86914,-5.54102 z" id="path59675" style="fill:#ffc343;fill-opacity:1;fill-rule:evenodd;stroke:none;stroke-width:2;stroke-linecap:round;stroke-linejoin:round;stroke-miterlimit:4.1"/><path d="m 424.66796,706.98047 a 1.0143267,0.98586373 0 0 0 -1.01562,0.98633 v 0.87109 c -1.11001,0.39194 -1.92774,1.40103 -1.92774,2.60352 0,1.54769 1.35332,2.78124 2.94336,2.78124 0.53968,0 0.91211,0.37515 0.91211,0.81055 0,0.43542 -0.37244,0.81055 -0.91211,0.81055 -0.53967,0 -0.91406,-0.37513 -0.91406,-0.81055 a 1.0143267,0.98586373 0 0 0 -1.01562,-0.98438 1.0143267,0.98586373 0 0 0 -1.01368,0.98438 c 10e-6,1.2025 0.81773,2.21353 1.92774,2.60548 v 0.87109 a 1.0143267,0.98586373 0 0 0 1.01562,0.98632 1.0143267,0.98586373 0 0 0 1.01368,-0.98632 v -0.87109 c 1.1105,-0.3917 1.92773,-1.40263 1.92773,-2.60548 0,-1.54767 -1.35137,-2.78125 -2.94141,-2.78125 -0.53967,0 -0.91406,-0.37511 -0.91406,-0.81054 0,-0.43542 0.37438,-0.8086 0.91406,-0.8086 0.53968,0 0.91211,0.37318 0.91211,0.8086 a 1.0143267,0.98586373 0 0 0 1.01563,0.98632 1.0143267,0.98586373 0 0 0 1.01367,-0.98632 c 0,-1.20286 -0.81723,-2.21183 -1.92773,-2.60352 v -0.87109 a 1.0143267,0.98586373 0 0 0 -1.01368,-0.98633 z" id="path19958" style="color:#000000;fill:#000000;fill-opacity:1;fill-rule:evenodd;stroke:none;stroke-width:1;stroke-linecap:round;stroke-linejoin:round;stroke-miterlimit:4.1;stroke-opacity:1"/><path d="m 424.52092,704.06918 c -5.22366,0 -9.47851,4.25681 -9.47851,9.48046 0,5.22365 4.25485,9.47852 9.47852,9.47852 2.41721,0 4.63574,-0.90991 6.31054,-2.4043 a 0.99999499,0.99999499 0 0 0 0.0801,-1.41211 0.99999499,0.99999499 0 0 0 -1.41211,-0.0801 c -1.32331,1.18075 -3.06147,1.89648 -4.97852,1.89648 -4.14279,0 -7.47851,-3.33575 -7.47851,-7.47852 0,-4.14277 3.33572,-7.48046 7.47851,-7.48046 4.1428,0 7.48047,3.33769 7.48047,7.48046 0,0.69636 -0.0946,1.36661 -0.27148,2.00391 a 0.99999499,0.99999499 0 0 0 0.69531,1.23047 0.99999499,0.99999499 0 0 0 1.23242,-0.69531 c 0.22455,-0.80921 0.34372,-1.66101 0.34372,-2.53904 0,-5.22365 -4.2568,-9.48046 -9.48047,-9.48046 z" id="path21610" style="color:#000000;fill:#000000;fill-rule:evenodd;stroke-linecap:round;stroke-linejoin:round;stroke-miterlimit:4.1;-inkscape-stroke:none"/></g></svg>