<?xml version="1.0" encoding="iso-8859-1"?>
<!-- Generator: Adobe Illustrator 19.0.0, SVG Export Plug-In . SVG Version: 6.00 Build 0)  -->
<svg xmlns="http://www.w3.org/2000/svg" xmlns:xlink="http://www.w3.org/1999/xlink" version="1.1" id="Capa_1" x="0px" y="0px" viewBox="0 0 504.999 504.999" style="enable-background:new 0 0 504.999 504.999;" xml:space="preserve" width="512" height="512">
<g>
	<rect x="7.5" y="252.502" style="fill:#B1DCEE;" width="244.997" height="244.997"/>
	<polyline style="fill:#B1DCEE;" points="303.002,252.498 252.502,252.498 252.502,7.501 497.499,7.501 497.499,252.498    323.004,252.498  "/>
	<rect x="7.5" y="7.501" style="fill:#FFA317;" width="244.997" height="244.997"/>
	<polyline style="fill:#FFA317;" points="323.004,252.502 497.499,252.502 497.499,497.499 252.502,497.499 252.502,252.502    303.002,252.502  "/>
	<polygon style="fill:#B1DCEE;" points="194.398,108.986 151.014,108.986 151.014,65.601 108.984,65.601 108.984,108.986    65.6,108.986 65.6,151.015 108.984,151.015 108.984,194.4 151.014,194.4 151.014,151.015 194.398,151.015  "/>
	<polygon style="fill:#FFA317;" points="435.397,160.677 404.72,130 435.397,99.322 405.679,69.603 375.001,100.281 344.323,69.603    314.604,99.322 345.281,130 314.604,160.677 344.323,190.397 375.001,159.719 405.679,190.397  "/>
	<rect x="65.6" y="316.957" style="fill:#FFA317;" width="128.799" height="42.029"/>
	<rect x="310.602" y="353.985" style="fill:#B1DCEE;" width="128.799" height="42.029"/>
	<g>
		<rect x="65.6" y="391.014" style="fill:#FFA317;" width="128.799" height="42.029"/>
		<g>
			<path style="fill:#214245;" d="M259.997,0.001h-14.995H0v245.001v14.996v245.001h245.002h14.995h245.002V259.998v-14.996V0.001     H259.997z M15,15.001h229.997v229.997H15V15.001z M244.997,489.999H15V260.002h229.997V489.999z M323.004,259.998v0.004h166.995     v229.997H260.002V260.002h43v-0.004v-14.996v-0.004h-43V15.001h229.997v229.997H323.004v0.004V259.998z"/>
			<path style="fill:#214245;" d="M158.514,58.101h-57.029v43.385H58.1v57.029h43.385V201.9h57.029v-43.385h43.385v-57.029h-43.385     V58.101z M186.898,116.486v27.029h-43.385V186.9h-27.029v-43.385H73.1v-27.029h43.385V73.101h27.029v43.385H186.898z"/>
			<path style="fill:#214245;" d="M375.001,170.326l30.678,30.678l40.325-40.326L415.326,130l30.678-30.678l-40.325-40.325     l-30.678,30.678l-30.678-30.678l-40.326,40.325L334.675,130l-30.678,30.678l40.326,40.326L375.001,170.326z M355.888,130     L325.21,99.322l19.113-19.112l30.678,30.678l30.678-30.678l19.112,19.112L394.113,130l30.678,30.678l-19.112,19.113     l-30.678-30.678l-30.678,30.678l-19.113-19.113L355.888,130z"/>
			<path style="fill:#214245;" d="M201.898,309.457H58.1v57.029h143.799V309.457z M186.898,351.486H73.1v-27.029h113.799V351.486z"/>
			<path style="fill:#214245;" d="M303.102,403.514H446.9v-57.029H303.102V403.514z M318.102,361.485H431.9v27.029H318.102V361.485z     "/>
			<path style="fill:#214245;" d="M201.898,383.514H58.1v57.029h143.799V383.514z M186.898,425.544H73.1v-27.029h113.799V425.544z"/>
		</g>
	</g>
</g>















</svg>
