<?xml version="1.0" ?><svg width="64px" height="64px" viewBox="0 0 64 64" id="svg5" version="1.1" xml:space="preserve" xmlns="http://www.w3.org/2000/svg" xmlns:svg="http://www.w3.org/2000/svg"><defs id="defs2"/><g id="layer1" transform="translate(0,-288)"><path d="m 10,297 h 49 v 6 H 10 Z" id="path26921" style="fill:#3e4f59;fill-opacity:1;fill-rule:evenodd;stroke-width:2;stroke-linecap:round;stroke-linejoin:round;stroke-miterlimit:4.1"/><path d="m 10,303 h 49 v 40 H 10 Z" id="path26923" style="fill:#acbec2;fill-opacity:1;fill-rule:evenodd;stroke-width:2.00001;stroke-linecap:round;stroke-linejoin:round;stroke-miterlimit:4.1"/><path d="m 10,303 v 40 h 29.769532 a 28.484051,41.392605 35.599482 0 0 18.625,-40 z" id="path26925" style="fill:#e8edee;fill-opacity:1;fill-rule:evenodd;stroke:none;stroke-width:2.00002;stroke-linecap:round;stroke-linejoin:round;stroke-miterlimit:4.1"/><path d="m 12,296 c -1.645006,0 -3,1.355 -3,3 v 40 c 0,0.55229 0.4477153,1 1,1 0.552285,0 1,-0.44771 1,-1 v -40 c 0,-0.56413 0.435873,-1 1,-1 h 45 c 0.564127,0 1,0.43587 1,1 v 3 H 16 c -0.552285,0 -1,0.44772 -1,1 0,0.55229 0.447715,1 1,1 h 42 v 37 c 0,0.56413 -0.435873,1 -1,1 H 8 c -0.5522847,0 -1,0.44772 -1,1 0,0.55229 0.4477153,1 1,1 h 49 c 1.645006,0 3,-1.35499 3,-3 0,-14 0,-28 0,-42 0,-1.645 -1.354994,-3 -3,-3 z" id="path26927" style="color:#000000;fill:#000000;fill-rule:evenodd;stroke-linecap:round;stroke-linejoin:round;stroke-miterlimit:4.1"/><path d="m 55,299 c -0.552285,0 -1,0.44772 -1,1 0,0.55229 0.447715,1 1,1 0.552285,0 1,-0.44771 1,-1 0,-0.55228 -0.447715,-1 -1,-1 z" id="path26929" style="color:#000000;fill:#ed7161;fill-opacity:1;fill-rule:evenodd;stroke-linecap:round;stroke-linejoin:round;stroke-miterlimit:4.1;-inkscape-stroke:none"/><path d="m 51,299 c -0.552285,0 -1,0.44772 -1,1 0,0.55229 0.447715,1 1,1 0.552285,0 1,-0.44771 1,-1 0,-0.55228 -0.447715,-1 -1,-1 z" id="path26931" style="color:#000000;fill:#ecba16;fill-opacity:1;fill-rule:evenodd;stroke-linecap:round;stroke-linejoin:round;stroke-miterlimit:4.1;-inkscape-stroke:none"/><path d="m 47,299 c -0.552285,0 -1,0.44772 -1,1 0,0.55229 0.447715,1 1,1 0.552285,0 1,-0.44771 1,-1 0,-0.55228 -0.447715,-1 -1,-1 z" id="path26933" style="color:#000000;fill:#42b05c;fill-opacity:1;fill-rule:evenodd;stroke-linecap:round;stroke-linejoin:round;stroke-miterlimit:4.1;-inkscape-stroke:none"/><path d="m 5,342 a 1,1 0 0 0 -1,1 1,1 0 0 0 1,1 1,1 0 0 0 1,-1 1,1 0 0 0 -1,-1 z" id="path26935" style="color:#000000;fill:#000000;fill-rule:evenodd;stroke-linecap:round;stroke-linejoin:round;stroke-miterlimit:4.1;-inkscape-stroke:none"/><path d="m 13,302 c -0.552285,0 -1,0.44772 -1,1 0,0.55229 0.447715,1 1,1 0.552285,0 1,-0.44771 1,-1 0,-0.55228 -0.447715,-1 -1,-1 z" id="path26937" style="color:#000000;fill:#000000;fill-rule:evenodd;stroke-linecap:round;stroke-linejoin:round;stroke-miterlimit:4.1;-inkscape-stroke:none"/><rect height="25.999954" id="rect1939" rx="1.9999999" ry="2" style="fill:#ffa221;fill-opacity:1;fill-rule:evenodd;stroke:none;stroke-width:2.00003;stroke-linecap:round;stroke-linejoin:round;stroke-miterlimit:4.1" width="38.999989" x="15.00001" y="310.00003"/><path d="M 16.999998,310 C 15.892001,310 15,310.892 15.000002,312 L 15,334 c 2e-6,1.108 0.891997,2 1.999999,2 h 32.00977 a 22.978642,18.558126 27.190304 0 0 -12.625002,-25.50782 22.978642,18.558126 27.190304 0 0 -1.111315,-0.4922 z" id="path11749" style="fill:#ffc343;fill-opacity:1;fill-rule:evenodd;stroke-width:2;stroke-linecap:round;stroke-linejoin:round;stroke-miterlimit:4.1"/><path d="m 31.999981,316.50001 6,4 -6,4 z" id="rect3747-5" style="fill:#fe73c5;fill-opacity:1;fill-rule:evenodd;stroke:none;stroke-width:2.00001;stroke-linecap:round;stroke-linejoin:round;stroke-miterlimit:4.1"/><g id="path3729-36"><path d="m 25,327 a 1,1 0 0 0 -1,1 v 1 h -4.091797 a 1,1 0 0 0 -1,1 1,1 0 0 0 1,1 H 24 v 1 a 1,1 0 0 0 1,1 1,1 0 0 0 1,-1 v -1 h 12 a 1,1 0 0 0 1,-1 1,1 0 0 0 -1,-1 H 26 v -1 a 1,1 0 0 0 -1,-1 z m 17,2 a 1,1 0 0 0 -1,1 1,1 0 0 0 1,1 h 7.033203 a 1,1 0 0 0 1,-1 1,1 0 0 0 -1,-1 z" id="path17613" style="color:#000000;fill:#000000;fill-rule:evenodd;stroke-linecap:round;stroke-linejoin:round;stroke-miterlimit:4.1"/></g><path d="m 32,318.5 v 6 l 4.5,-3 z" id="path11975" style="fill:#fe93d3;fill-opacity:1;fill-rule:evenodd;stroke:none;stroke-width:2.00001;stroke-linecap:round;stroke-linejoin:round;stroke-miterlimit:4.1"/><path d="m 53.999998,333.99998 c 0,1.108 -0.892,2 -2,2 H 17.000009 c -1.108,0 -1.999999,-0.892 -1.999999,-2 v -18.00964 m 0,-3.99031 c 0,-1.108 0.891999,-2 1.999999,-2 h 34.999989 c 1.108,0 2,0.892 2,2 v 17.94581" id="rect17676" style="fill:none;fill-rule:evenodd;stroke:#000000;stroke-width:2.00003;stroke-linecap:round;stroke-linejoin:round;stroke-miterlimit:4.1"/><path d="m 32.554687,315.66797 a 1.000005,1.000005 0 0 0 -1.386718,0.27734 1.000005,1.000005 0 0 0 0.277343,1.38672 L 36.197266,320.5 33,322.63086 v -2.32227 a 1.000005,1.000005 0 0 0 -1,-1 1.000005,1.000005 0 0 0 -1,1 V 324.5 a 1.000105,1.000105 0 0 0 1.554687,0.83203 l 6,-4 a 1.000105,1.000105 0 0 0 0,-1.66406 z" id="path17620" style="color:#000000;fill:#000000;fill-rule:evenodd;stroke-linecap:round;stroke-linejoin:round;stroke-miterlimit:4.1;-inkscape-stroke:none"/></g></svg>