<?xml version="1.0" ?><svg width="64px" height="64px" viewBox="0 0 64 64" id="svg5" version="1.1" xml:space="preserve" xmlns="http://www.w3.org/2000/svg" xmlns:svg="http://www.w3.org/2000/svg"><defs id="defs2"/><g id="layer1" transform="translate(-192)"><path d="m 201.99999,9 h 49 v 6 h -49 z" id="path6435" style="fill:#3e4f59;fill-opacity:1;fill-rule:evenodd;stroke-width:2;stroke-linecap:round;stroke-linejoin:round;stroke-miterlimit:4.1"/><path d="m 201.99999,15 h 49 v 40 h -49 z" id="path6437" style="fill:#acbec2;fill-opacity:1;fill-rule:evenodd;stroke-width:2.00001;stroke-linecap:round;stroke-linejoin:round;stroke-miterlimit:4.1"/><path d="m 201.99999,15 v 40 h 29.76953 a 28.484051,41.392605 35.599482 0 0 18.625,-40 z" id="path6439" style="fill:#e8edee;fill-opacity:1;fill-rule:evenodd;stroke:none;stroke-width:2.00002;stroke-linecap:round;stroke-linejoin:round;stroke-miterlimit:4.1"/><path d="M 218.97299,20 246,27.17733 241.83177,42.59315 214.80476,35.41582 Z" id="path3576" style="fill:#0075d3;fill-opacity:1;fill-rule:evenodd;stroke:none;stroke-width:2;stroke-linecap:round;stroke-linejoin:round;stroke-miterlimit:4.1;stroke-opacity:1"/><path d="m 203.99999,8 c -1.64501,0 -3,1.3549933 -3,3 v 40 c 0,0.552285 0.44772,1 1,1 0.55228,0 1,-0.447715 1,-1 V 11 c 0,-0.564128 0.43587,-1 1,-1 h 45 c 0.56413,0 1,0.435872 1,1 v 3 h -42 c -0.55228,0 -1,0.447715 -1,1 0,0.552285 0.44772,1 1,1 h 42 v 37 c 0,0.564127 -0.43587,1 -1,1 h -49 c -0.55228,0 -1,0.447715 -1,1 0,0.552285 0.44772,1 1,1 h 49 c 1.64501,0 3,-1.354994 3,-3 0,-14 0,-28 0,-42 0,-1.6450067 -1.35499,-3 -3,-3 z" id="path6441" style="color:#000000;fill:#000000;fill-rule:evenodd;stroke-linecap:round;stroke-linejoin:round;stroke-miterlimit:4.1"/><path d="m 246.99999,11 c -0.55228,0 -1,0.447715 -1,1 0,0.552285 0.44772,1 1,1 0.55228,0 1,-0.447715 1,-1 0,-0.552285 -0.44772,-1 -1,-1 z" id="path6443" style="color:#000000;fill:#ed7161;fill-opacity:1;fill-rule:evenodd;stroke-linecap:round;stroke-linejoin:round;stroke-miterlimit:4.1;-inkscape-stroke:none"/><path d="m 242.99999,11 c -0.55228,0 -1,0.447715 -1,1 0,0.552285 0.44772,1 1,1 0.55228,0 1,-0.447715 1,-1 0,-0.552285 -0.44772,-1 -1,-1 z" id="path6445" style="color:#000000;fill:#ecba16;fill-opacity:1;fill-rule:evenodd;stroke-linecap:round;stroke-linejoin:round;stroke-miterlimit:4.1;-inkscape-stroke:none"/><path d="m 238.99999,11 c -0.55228,0 -1,0.447715 -1,1 0,0.552285 0.44772,1 1,1 0.55228,0 1,-0.447715 1,-1 0,-0.552285 -0.44772,-1 -1,-1 z" id="path6447" style="color:#000000;fill:#42b05c;fill-opacity:1;fill-rule:evenodd;stroke-linecap:round;stroke-linejoin:round;stroke-miterlimit:4.1;-inkscape-stroke:none"/><path d="m 196.99999,54 a 1,1 0 0 0 -1,1 1,1 0 0 0 1,1 1,1 0 0 0 1,-1 1,1 0 0 0 -1,-1 z" id="path6449" style="color:#000000;fill:#000000;fill-rule:evenodd;stroke-linecap:round;stroke-linejoin:round;stroke-miterlimit:4.1;-inkscape-stroke:none"/><path d="m 204.99999,14 c -0.55228,0 -1,0.447715 -1,1 0,0.552285 0.44772,1 1,1 0.55228,0 1,-0.447715 1,-1 0,-0.552285 -0.44772,-1 -1,-1 z" id="path6451" style="color:#000000;fill:#000000;fill-rule:evenodd;stroke-linecap:round;stroke-linejoin:round;stroke-miterlimit:4.1;-inkscape-stroke:none"/><path d="m 218.97265,19.999999 -4.16796,15.416017 20.05468,5.326171 a 20.958813,16.32652 19.823941 0 0 2.8086,-5.380859 20.958813,16.32652 19.823941 0 0 -1.75977,-10.863281 z" id="path10248" style="fill:#0588e2;fill-opacity:1;fill-rule:evenodd;stroke:none;stroke-width:1.99999;stroke-linecap:round;stroke-linejoin:round;stroke-miterlimit:4.1"/><path d="m 218.97266,20.000501 -1.03516,3.832031 27.00977,7.236329 L 246,27.178236 Z" id="path6378" style="fill:#ffa221;fill-opacity:1;fill-rule:evenodd;stroke:none;stroke-width:2;stroke-linecap:round;stroke-linejoin:round;stroke-miterlimit:4.1;stroke-opacity:1"/><path d="m 218.97266,20 -1.03516,3.832031 19.73633,5.28711 a 20.958813,16.32652 19.823941 0 0 -1.76563,-4.621094 z" id="path8503" style="fill:#ffc343;fill-opacity:1;fill-rule:evenodd;stroke:none;stroke-width:1.99999;stroke-linecap:round;stroke-linejoin:round;stroke-miterlimit:4.1"/><path d="m 219.03125,19.001953 c -0.4631,-0.02732 -0.89752,0.271205 -1.02344,0.736328 l -4.16797,15.416016 c -0.14518,0.53525 0.17291,1.086424 0.70899,1.228515 l 27.02539,7.177735 c 0.53276,0.141551 1.07961,-0.174677 1.22266,-0.707031 l 1.43164,-5.296875 c 0.14437,-0.532848 -0.17037,-1.081885 -0.70313,-1.226563 -0.53344,-0.144238 -1.08274,0.171527 -1.22656,0.705078 l -1.17188,4.335938 -25.0957,-6.664063 2.60937,-9.65039 15.10938,4.046875 c 0.53403,0.144107 1.08361,-0.172689 1.22656,-0.707032 0.14273,-0.533991 -0.17482,-1.082498 -0.70898,-1.224609 l -15.10352,-4.044922 0.51367,-1.904297 25.09571,6.664063 -0.53125,1.958984 -5.75196,-1.542969 c -0.5334,-0.14286 -1.08163,0.173663 -1.22461,0.707032 -0.14285,0.533401 0.17367,1.081636 0.70704,1.224609 l 5.74804,1.541016 -0.47656,1.765625 c -0.14437,0.532847 0.17037,1.081884 0.70313,1.226562 0.53285,0.14437 1.08188,-0.170364 1.22656,-0.703125 0.59698,-2.208991 1.19313,-4.418207 1.79101,-6.626953 0.14392,-0.534616 -0.17388,-1.084434 -0.70898,-1.226562 l -27.02539,-7.177735 c -0.0665,-0.01771 -0.13306,-0.02735 -0.19922,-0.03125 z" id="path3576-9" style="color:#000000;fill:#000000;fill-rule:evenodd;stroke-linecap:round;stroke-linejoin:round;stroke-miterlimit:4.1;-inkscape-stroke:none"/><path d="m 207,32 h 29 v 18 h -29 z" id="rect2845" style="fill:#fe73c5;fill-opacity:1;fill-rule:evenodd;stroke:none;stroke-width:2;stroke-linecap:round;stroke-linejoin:round;stroke-miterlimit:4.1;stroke-opacity:1"/><path d="m 207,31.999999 v 17.999998 l 14.29297,7e-6 A 17.275894,30.580456 75 0 0 236,38.068359 v -6.06836 z" id="path9733" style="fill:#fe93d3;fill-opacity:1;fill-rule:evenodd;stroke:none;stroke-width:2;stroke-linecap:round;stroke-linejoin:round;stroke-miterlimit:4.1"/><ellipse cx="219" cy="46.077576" id="circle2918" rx="0.93075401" ry="0.92241609" style="fill:#000000;fill-opacity:1;fill-rule:evenodd;stroke:none;stroke-width:2;stroke-linecap:round;stroke-linejoin:round;stroke-miterlimit:4.1"/><ellipse cx="221.97842" cy="46.077576" id="circle2920" rx="0.93075401" ry="0.92241609" style="fill:#000000;fill-opacity:1;fill-rule:evenodd;stroke:none;stroke-width:2;stroke-linecap:round;stroke-linejoin:round;stroke-miterlimit:4.1"/><ellipse cx="224.77069" cy="46.077576" id="circle2930" rx="0.93075401" ry="0.92241609" style="fill:#000000;fill-opacity:1;fill-rule:evenodd;stroke:none;stroke-width:2;stroke-linecap:round;stroke-linejoin:round;stroke-miterlimit:4.1"/><rect height="4" id="rect3371" style="fill:#ffc343;fill-opacity:1;fill-rule:evenodd;stroke-width:2;stroke-linecap:round;stroke-linejoin:round;stroke-miterlimit:4.1" width="29" x="207" y="32"/><g id="path3580"><path d="m 207,31 c -0.55226,5.5e-5 -0.99994,0.447738 -1,1 0,2 0,4 0,6 0,0.552285 0.44772,1 1,1 0.55228,0 1,-0.447715 1,-1 v -1 h 24 c 0.55228,-6e-6 0.99999,-0.447718 1,-1 -1e-5,-0.552282 -0.44772,-0.999994 -1,-1 h -24 v -2 h 27 v 11.175781 c 0,0.552285 0.44772,1 1,1 0.55228,0 1,-0.447715 1,-1 V 32 c -6e-5,-0.552262 -0.44774,-0.999945 -1,-1 z m 0,10 c -0.55228,0 -1,0.447715 -1,1 v 8 c 6e-5,0.552262 0.44774,0.999945 1,1 h 29 c 0.55226,-5.5e-5 0.99994,-0.447738 1,-1 v -1.785156 c 0,-0.552285 -0.44772,-1 -1,-1 -0.55228,0 -1,0.447715 -1,1 V 49 h -27 v -7 c 0,-0.552285 -0.44772,-1 -1,-1 z" id="path3399" style="color:#000000;fill:#000000;fill-rule:evenodd;stroke-linecap:round;stroke-linejoin:round;stroke-miterlimit:4.1"/></g><g id="path3590"><path d="m 226.95508,39 a 1.00001,1.00001 0 0 0 -1,1 1.00001,1.00001 0 0 0 1,1 H 232 a 1.00001,1.00001 0 0 0 1,-1 1.00001,1.00001 0 0 0 -1,-1 z" id="path3393" style="color:#000000;fill:#000000;fill-rule:evenodd;stroke-linecap:round;stroke-linejoin:round;stroke-miterlimit:4.1;-inkscape-stroke:none"/></g><path d="m 211,42 h 4 v 4 h -4 z" id="path16580" style="color:#000000;fill:#ffc343;fill-opacity:1;fill-rule:evenodd;stroke-width:2;stroke-linecap:round;stroke-linejoin:round;stroke-miterlimit:4.1"/><path d="m 211,41 a 1.0001,1.0001 0 0 0 -1,1 v 4 a 1.0001,1.0001 0 0 0 1,1 h 4 a 1.0001,1.0001 0 0 0 1,-1 v -4 a 1.0001,1.0001 0 0 0 -1,-1 z m 1,2 h 2 v 2 h -2 z" id="path16582" style="color:#000000;fill:#000000;fill-rule:evenodd;stroke-linecap:round;stroke-linejoin:round;stroke-miterlimit:4.1;-inkscape-stroke:none"/></g></svg>