<?xml version="1.0" encoding="iso-8859-1"?>
<!-- Generator: Adobe Illustrator 19.0.0, SVG Export Plug-In . SVG Version: 6.00 Build 0)  -->
<svg version="1.1" id="Layer_1" xmlns="http://www.w3.org/2000/svg" xmlns:xlink="http://www.w3.org/1999/xlink" x="0px" y="0px"
	 viewBox="0 0 512.002 512.002" style="enable-background:new 0 0 512.002 512.002;" xml:space="preserve">
<path style="fill:#C2FB3B;" d="M418.909,201.923c-7.464-3.556-15.239-6.555-23.273-8.954c-7.543-2.254-15.317-3.973-23.273-5.117
	c-7.604-1.092-15.371-1.669-23.273-1.669c-64.856,0-120.976,38.102-147.167,93.091c-3.556,7.464-6.555,15.241-8.954,23.273
	c-2.254,7.543-3.973,15.317-5.117,23.273c-1.092,7.604-1.669,15.371-1.669,23.273c0,89.828,73.081,162.909,162.909,162.909
	s162.909-73.081,162.909-162.909C512,284.234,473.899,228.115,418.909,201.923z M415.195,331.413l-66.104,66.105l-3.714,3.714
	c-4.543,4.544-10.499,6.816-16.455,6.816s-11.913-2.271-16.455-6.817l-31.03-31.03c-9.089-9.087-9.089-23.824,0-32.912
	c9.087-9.089,23.824-9.089,32.912,0l14.575,14.573l20.17-20.17l33.193-33.192c9.087-9.089,23.824-9.089,32.912,0
	C424.285,307.589,424.285,322.326,415.195,331.413z"/>
<path style="fill:#F2D23D;" d="M418.799,21.077c-0.022-0.219-0.054-0.434-0.082-0.652c-0.057-0.476-0.129-0.948-0.216-1.415
	c-0.053-0.289-0.112-0.573-0.175-0.861c-0.088-0.391-0.191-0.776-0.298-1.161c-0.087-0.303-0.164-0.607-0.264-0.908
	c-0.019-0.056-0.031-0.113-0.048-0.168c-0.119-0.357-0.262-0.701-0.397-1.049c-0.137-0.352-0.275-0.7-0.425-1.043
	c-0.222-0.493-0.451-0.985-0.703-1.46c-0.121-0.227-0.254-0.442-0.382-0.667c-0.225-0.385-0.451-0.77-0.694-1.142
	c-0.14-0.213-0.285-0.419-0.428-0.627c-0.267-0.379-0.545-0.748-0.832-1.111c-0.14-0.177-0.279-0.355-0.422-0.528
	c-0.361-0.428-0.739-0.841-1.129-1.241c-0.088-0.092-0.168-0.185-0.256-0.273c-0.484-0.481-0.987-0.937-1.511-1.373
	c-0.152-0.127-0.312-0.242-0.469-0.366c-0.374-0.296-0.754-0.585-1.147-0.858c-0.222-0.155-0.447-0.299-0.673-0.447
	c-0.349-0.227-0.703-0.438-1.063-0.644c-0.247-0.143-0.493-0.285-0.746-0.419c-0.388-0.203-0.788-0.391-1.192-0.573
	c-0.225-0.102-0.442-0.216-0.67-0.309c-0.597-0.248-1.207-0.47-1.828-0.67c-0.254-0.082-0.515-0.146-0.773-0.219
	c-0.419-0.119-0.841-0.233-1.269-0.327c-0.272-0.061-0.546-0.115-0.821-0.166c-0.456-0.082-0.915-0.152-1.381-0.209
	c-0.24-0.031-0.479-0.064-0.721-0.088C397.078,0.043,396.362,0,395.636,0H209.455H23.273c-0.726,0-1.441,0.043-2.149,0.107
	c-0.242,0.025-0.481,0.057-0.721,0.088c-0.465,0.057-0.925,0.127-1.381,0.209c-0.276,0.051-0.549,0.106-0.821,0.166
	c-0.428,0.095-0.85,0.206-1.269,0.326c-0.258,0.074-0.518,0.138-0.773,0.22c-0.619,0.2-1.23,0.42-1.828,0.67
	c-0.227,0.093-0.445,0.205-0.669,0.309c-0.403,0.182-0.804,0.369-1.192,0.573c-0.253,0.133-0.5,0.276-0.746,0.419
	c-0.358,0.206-0.714,0.419-1.063,0.644c-0.225,0.146-0.451,0.292-0.673,0.445C9.598,4.45,9.216,4.738,8.842,5.035
	C8.685,5.159,8.526,5.274,8.374,5.401c-0.523,0.438-1.027,0.894-1.51,1.373C6.775,6.862,6.695,6.955,6.608,7.047
	c-0.391,0.4-0.766,0.811-1.128,1.241C5.334,8.459,5.194,8.639,5.056,8.817c-0.289,0.36-0.565,0.729-0.83,1.108
	c-0.146,0.208-0.292,0.416-0.431,0.63c-0.242,0.371-0.469,0.756-0.694,1.14c-0.127,0.225-0.261,0.439-0.382,0.667
	c-0.251,0.475-0.483,0.967-0.703,1.46c-0.152,0.343-0.29,0.69-0.427,1.043c-0.135,0.348-0.278,0.69-0.397,1.049
	c-0.019,0.054-0.031,0.112-0.048,0.168c-0.098,0.301-0.177,0.605-0.264,0.908c-0.107,0.385-0.211,0.77-0.298,1.161
	c-0.064,0.289-0.123,0.573-0.175,0.861c-0.087,0.467-0.158,0.939-0.216,1.415c-0.028,0.217-0.061,0.433-0.082,0.652
	c-0.067,0.709-0.106,1.427-0.109,2.152c-0.012,7.202,3.325,14.172,9.308,18.662l13.964,10.473l23.273,17.455l148.945,111.709
	c4.138,3.103,9.05,4.655,13.964,4.655s9.826-1.552,13.964-4.655L372.364,69.818l23.273-17.455L409.6,41.891
	c5.983-4.49,9.32-11.459,9.308-18.662C418.904,22.505,418.866,21.786,418.799,21.077z"/>
<path style="fill:#F6E27D;" d="M418.908,23.229c0.012,7.204-3.325,14.173-9.308,18.662l-13.964,10.473l-23.273,17.455
	L223.418,181.527c-4.138,3.103-9.05,4.655-13.964,4.655s-9.826-1.552-13.964-4.655L46.545,69.818L23.273,52.364L9.309,41.891
	c-5.983-4.49-9.32-11.459-9.308-18.662C0.002,23.243,0,23.259,0,23.273v279.273c0,12.853,10.42,23.273,23.273,23.273h164.579
	c1.143-7.956,2.863-15.729,5.117-23.273c2.4-8.032,5.398-15.808,8.954-23.273c2.284-4.793,4.808-9.45,7.531-13.973
	c28.528-47.362,80.437-79.118,139.638-79.118c7.902,0,15.669,0.577,23.273,1.669c7.956,1.143,15.729,2.863,23.273,5.117
	c8.034,2.4,15.808,5.398,23.273,8.954V23.273C418.909,23.259,418.908,23.243,418.908,23.229z"/>
<path style="fill:#79AB03;" d="M312.466,401.231c4.544,4.546,10.501,6.817,16.455,6.817s11.913-2.271,16.455-6.817l69.818-69.818
	c9.089-9.087,9.089-23.823,0-32.912c-9.087-9.089-23.824-9.089-32.912,0l-53.361,53.361l-14.575-14.573
	c-9.087-9.089-23.824-9.089-32.912,0c-9.089,9.087-9.089,23.824,0,32.912L312.466,401.231z"/>
<path style="fill:#F5DC60;" d="M195.491,181.527L46.545,69.818L23.273,52.364L9.309,41.891c-5.983-4.49-9.32-11.459-9.308-18.662
	C0.002,23.243,0,23.259,0,23.273v279.273c0,12.853,10.42,23.273,23.273,23.273h164.579c1.143-7.956,2.863-15.729,5.117-23.273
	c2.4-8.032,5.398-15.808,8.954-23.273c2.284-4.793,4.808-9.45,7.533-13.973v-79.118C204.541,186.182,199.629,184.63,195.491,181.527
	z"/>
<path style="fill:#EEBF00;" d="M9.309,41.891l13.964,10.473l23.273,17.455l148.945,111.709c4.138,3.103,9.05,4.655,13.964,4.655V0
	H23.273c-0.726,0-1.441,0.043-2.149,0.107c-0.242,0.025-0.479,0.057-0.721,0.088c-0.465,0.057-0.925,0.127-1.381,0.209
	c-0.276,0.051-0.549,0.106-0.821,0.168c-0.428,0.093-0.85,0.206-1.269,0.326c-0.258,0.074-0.518,0.138-0.773,0.22
	c-0.619,0.2-1.23,0.42-1.828,0.67c-0.227,0.092-0.445,0.203-0.669,0.307c-0.403,0.182-0.804,0.369-1.192,0.573
	c-0.253,0.133-0.5,0.276-0.748,0.419c-0.358,0.206-0.714,0.419-1.063,0.644c-0.223,0.146-0.45,0.292-0.672,0.445
	C9.598,4.45,9.216,4.738,8.842,5.035C8.685,5.159,8.526,5.274,8.374,5.401c-0.523,0.438-1.027,0.894-1.51,1.373
	C6.775,6.862,6.695,6.955,6.608,7.047c-0.391,0.4-0.766,0.811-1.128,1.241C5.334,8.459,5.194,8.639,5.056,8.817
	c-0.289,0.36-0.565,0.729-0.83,1.109c-0.146,0.206-0.292,0.414-0.431,0.628c-0.242,0.371-0.469,0.756-0.694,1.14
	c-0.127,0.225-0.261,0.439-0.382,0.667c-0.251,0.475-0.483,0.967-0.703,1.46c-0.152,0.343-0.29,0.69-0.427,1.043
	c-0.135,0.348-0.278,0.69-0.397,1.049c-0.019,0.054-0.031,0.112-0.048,0.168c-0.099,0.301-0.177,0.605-0.264,0.908
	c-0.107,0.385-0.211,0.77-0.298,1.161c-0.064,0.289-0.123,0.573-0.175,0.861c-0.087,0.467-0.158,0.94-0.216,1.415
	c-0.028,0.217-0.061,0.433-0.082,0.652c-0.067,0.709-0.106,1.427-0.109,2.152C-0.011,30.431,3.326,37.401,9.309,41.891z"/>
<path style="fill:#9CDD05;" d="M201.922,279.273c-3.556,7.464-6.555,15.241-8.954,23.273c-2.254,7.543-3.973,15.317-5.117,23.273
	c-1.092,7.604-1.669,15.371-1.669,23.273c0,89.828,73.079,162.909,162.909,162.909V397.518l-3.714,3.714
	c-4.543,4.544-10.499,6.816-16.455,6.816s-11.913-2.271-16.455-6.817l-31.03-31.03c-9.089-9.087-9.089-23.824,0-32.912
	c9.087-9.089,23.824-9.089,32.912,0l14.575,14.573l20.17-20.17v-145.51C284.234,186.182,228.115,224.284,201.922,279.273z"/>
<g>
</g>
<g>
</g>
<g>
</g>
<g>
</g>
<g>
</g>
<g>
</g>
<g>
</g>
<g>
</g>
<g>
</g>
<g>
</g>
<g>
</g>
<g>
</g>
<g>
</g>
<g>
</g>
<g>
</g>
</svg>
